<svg xmlns="http://www.w3.org/2000/svg" width="32" height="29" viewBox="0 0 32 29" fill="none">
  <path d="M31.7144 7.10665C31.5672 6.89346 31.3707 6.7192 31.1416 6.59881C30.9126 6.47842 30.6578 6.41548 30.3992 6.41539H8.53257L6.68622 1.97274C6.44413 1.38769 6.03419 0.887878 5.50837 0.536672C4.98256 0.185465 4.36455 -0.00131682 3.7327 6.98835e-06H0V3.2077H3.7327L11.3229 21.4675C11.4445 21.7596 11.6496 22.0092 11.9124 22.1847C12.1752 22.3602 12.4839 22.4539 12.7997 22.4539H25.5993C26.2665 22.4539 26.8633 22.0385 27.0985 21.4146L31.8984 8.5838C31.9891 8.34101 32.0197 8.07979 31.9877 7.82253C31.9556 7.56527 31.8618 7.31963 31.7144 7.10665ZM24.4905 19.2462H13.8668L9.86694 9.62309H28.0905L24.4905 19.2462Z" fill="#2DB150"/>
  <path d="M13.5996 28.8692C14.9251 28.8692 15.9996 27.7921 15.9996 26.4635C15.9996 25.1348 14.9251 24.0577 13.5996 24.0577C12.2742 24.0577 11.1997 25.1348 11.1997 26.4635C11.1997 27.7921 12.2742 28.8692 13.5996 28.8692Z" fill="#2DB150"/>
  <path d="M24.7993 28.8692C26.1248 28.8692 27.1993 27.7921 27.1993 26.4635C27.1993 25.1348 26.1248 24.0577 24.7993 24.0577C23.4739 24.0577 22.3994 25.1348 22.3994 26.4635C22.3994 27.7921 23.4739 28.8692 24.7993 28.8692Z" fill="#2DB150"/>
</svg>